<svg width="17" height="17" viewBox="0 0 17 17" fill="none" xmlns="http://www.w3.org/2000/svg">
<g clip-path="url(#clip0_83_6)">
<path d="M9.28516 9.28431L15.8933 9.28421C16.3232 9.28431 16.6707 8.93682 16.6706 8.50688C16.6706 8.07704 16.3231 7.72955 15.8933 7.72955L9.28505 7.72955L9.28516 1.12145C9.28506 0.691512 8.93766 0.34412 8.50783 0.34412C8.07789 0.344019 7.7304 0.691512 7.7305 1.12145L7.7304 7.72955L1.1223 7.72965C0.692359 7.72955 0.344866 8.07704 0.344967 8.50698C0.344866 8.72129 0.431841 8.91598 0.572569 9.05671C0.713298 9.19744 0.907881 9.28431 1.1223 9.28431L7.7304 9.28421V15.8924C7.7304 16.1068 7.81727 16.3014 7.958 16.4421C8.09873 16.5829 8.29331 16.6697 8.50773 16.6697C8.93766 16.6698 9.28516 16.3223 9.28505 15.8924L9.28516 9.28431Z" fill="#0076FF"/>
</g>
<defs>
<clipPath id="clip0_83_6">
<rect width="12" height="12" fill="white" transform="translate(8.51471 0.0147095) rotate(45)"/>
</clipPath>
</defs>
</svg>
